<svg xmlns="http://www.w3.org/2000/svg" xmlns:xlink="http://www.w3.org/1999/xlink" viewBox="0 0 101 34"><path d="M 60.994 5.398 L 64.916 5.398 L 64.916 7.83 C 65.773 6.807 66.796 6.053 67.984 5.567 C 69.17 5.08 70.421 4.837 71.733 4.837 C 74.18 4.837 76.011 5.492 77.222 6.8 C 78.433 8.11 79.039 9.848 79.039 12.019 L 79.039 23.353 L 74.268 23.353 L 74.268 12.468 C 74.268 9.85 73.032 8.54 70.557 8.54 C 69.471 8.54 68.449 8.795 67.489 9.307 C 66.529 9.818 65.723 10.585 65.065 11.607 L 65.065 23.353 L 60.293 23.353 L 60.293 6.088 C 60.293 5.708 60.605 5.4 60.989 5.4 Z M 38.372 14.414 C 38.372 17.405 39.357 19.737 41.327 21.408 L 41.325 21.41 C 43.292 23.08 45.968 23.917 49.352 23.917 C 50.688 23.917 52.033 23.802 53.384 23.579 C 54.736 23.353 55.839 23.068 56.698 22.718 L 56.698 19.727 C 56.698 19.42 56.397 19.206 56.1 19.303 C 55.334 19.554 54.472 19.757 53.517 19.914 C 52.304 20.115 51.118 20.214 49.957 20.214 C 45.591 20.214 43.242 18.879 42.915 16.211 L 57.866 16.211 C 58.163 16.211 58.404 15.973 58.404 15.68 L 58.404 14.042 C 58.404 12.27 58.025 10.694 57.269 9.309 C 56.512 7.924 55.382 6.835 53.879 6.036 C 52.377 5.239 50.565 4.839 48.445 4.839 C 45.214 4.839 42.727 5.701 40.985 7.42 C 39.244 9.14 38.372 11.424 38.372 14.414 Z M 52.367 9.701 C 53.337 10.473 53.849 11.57 53.899 12.992 L 42.92 12.992 C 42.97 11.622 43.475 10.538 44.435 9.738 C 45.392 8.942 46.681 8.542 48.372 8.542 C 50.063 8.542 51.394 8.929 52.367 9.701 Z M 80.89 14.414 C 80.89 17.405 81.875 19.737 83.845 21.408 L 83.843 21.41 C 85.81 23.08 88.486 23.917 91.87 23.917 C 93.206 23.917 94.551 23.802 95.902 23.579 C 97.254 23.353 98.357 23.068 99.216 22.718 L 99.216 19.727 C 99.216 19.42 98.915 19.206 98.618 19.303 C 97.852 19.554 96.99 19.757 96.035 19.914 C 94.822 20.115 93.636 20.214 92.475 20.214 C 88.109 20.214 85.76 18.879 85.433 16.211 L 100.384 16.211 C 100.681 16.211 100.922 15.973 100.922 15.68 L 100.922 14.042 C 100.922 12.27 100.543 10.694 99.786 9.309 C 99.03 7.924 97.9 6.835 96.397 6.036 C 94.895 5.239 93.083 4.839 90.963 4.839 C 87.732 4.839 85.245 5.701 83.503 7.42 C 81.762 9.14 80.89 11.424 80.89 14.414 Z M 94.885 9.701 C 95.855 10.473 96.367 11.57 96.417 12.992 L 85.438 12.992 C 85.488 11.622 85.993 10.538 86.953 9.738 C 87.91 8.942 89.199 8.542 90.89 8.542 C 92.581 8.542 93.912 8.929 94.885 9.701 Z M 74.755 31.176 C 74.474 31.027 74.253 30.816 74.092 30.543 C 73.931 30.27 73.851 29.96 73.851 29.607 C 73.851 29.255 73.931 28.945 74.092 28.672 C 74.253 28.399 74.474 28.188 74.755 28.036 C 75.036 27.885 75.351 27.811 75.7 27.811 C 76.049 27.811 76.358 27.885 76.639 28.036 C 76.921 28.188 77.142 28.399 77.303 28.672 C 77.463 28.945 77.544 29.255 77.544 29.607 C 77.544 29.96 77.463 30.27 77.303 30.54 C 77.142 30.811 76.921 31.022 76.639 31.173 C 76.358 31.325 76.046 31.399 75.7 31.399 C 75.353 31.399 75.036 31.325 74.755 31.176 Z M 76.308 30.682 C 76.491 30.583 76.637 30.439 76.745 30.253 C 76.853 30.066 76.906 29.851 76.906 29.605 C 76.906 29.359 76.853 29.148 76.747 28.962 C 76.642 28.776 76.496 28.634 76.313 28.53 C 76.129 28.428 75.926 28.379 75.7 28.379 C 75.474 28.379 75.268 28.428 75.084 28.53 C 74.901 28.632 74.755 28.776 74.647 28.962 C 74.542 29.148 74.489 29.362 74.489 29.605 C 74.489 29.848 74.542 30.066 74.65 30.253 C 74.758 30.439 74.903 30.58 75.089 30.682 C 75.273 30.781 75.476 30.831 75.7 30.831 C 75.923 30.831 76.124 30.781 76.308 30.682 Z M 74.732 27.165 C 74.838 27.024 75.004 26.954 75.23 26.954 C 75.303 26.954 75.376 26.964 75.443 26.984 C 75.514 27.004 75.602 27.036 75.712 27.078 C 75.805 27.118 75.886 27.148 75.956 27.17 C 76.026 27.193 76.097 27.202 76.17 27.202 C 76.376 27.202 76.541 27.118 76.667 26.952 L 76.667 27.458 C 76.564 27.597 76.398 27.664 76.17 27.664 C 76.087 27.664 76.006 27.654 75.931 27.632 C 75.856 27.609 75.768 27.58 75.667 27.535 C 75.567 27.495 75.486 27.466 75.426 27.446 C 75.363 27.426 75.298 27.416 75.23 27.416 C 75.134 27.416 75.044 27.436 74.964 27.475 C 74.883 27.515 74.805 27.58 74.732 27.672 Z M 40.543 31.342 C 40.342 31.305 40.176 31.255 40.048 31.191 L 40.048 30.655 C 40.214 30.734 40.39 30.794 40.571 30.831 C 40.752 30.868 40.933 30.89 41.109 30.89 C 41.332 30.89 41.5 30.848 41.616 30.766 C 41.732 30.684 41.789 30.57 41.789 30.426 C 41.789 30.325 41.762 30.24 41.709 30.173 C 41.656 30.106 41.578 30.047 41.475 29.997 C 41.372 29.947 41.214 29.88 41.003 29.798 C 40.676 29.667 40.44 29.52 40.294 29.359 C 40.149 29.198 40.076 28.999 40.076 28.759 C 40.076 28.572 40.126 28.406 40.229 28.262 C 40.332 28.118 40.475 28.007 40.664 27.927 C 40.852 27.848 41.063 27.808 41.307 27.808 C 41.505 27.808 41.684 27.823 41.837 27.855 C 41.993 27.887 42.144 27.935 42.294 28.002 L 42.294 28.523 C 42.005 28.384 41.714 28.317 41.418 28.317 C 41.204 28.317 41.041 28.356 40.925 28.433 C 40.81 28.51 40.752 28.62 40.752 28.761 C 40.752 28.863 40.779 28.945 40.832 29.009 C 40.885 29.074 40.955 29.128 41.043 29.173 C 41.131 29.218 41.289 29.287 41.518 29.381 C 41.752 29.476 41.935 29.57 42.068 29.662 C 42.201 29.754 42.304 29.86 42.372 29.985 C 42.44 30.109 42.475 30.258 42.475 30.436 C 42.475 30.741 42.365 30.98 42.141 31.148 C 41.918 31.317 41.588 31.402 41.154 31.402 C 40.948 31.402 40.744 31.382 40.543 31.345 Z M 47.266 31.176 C 46.985 31.027 46.764 30.816 46.603 30.543 C 46.442 30.27 46.362 29.96 46.362 29.607 C 46.362 29.255 46.442 28.945 46.603 28.672 C 46.764 28.399 46.985 28.188 47.266 28.036 C 47.548 27.885 47.862 27.811 48.211 27.811 C 48.56 27.811 48.869 27.885 49.151 28.036 C 49.432 28.188 49.653 28.399 49.814 28.672 C 49.975 28.945 50.055 29.255 50.055 29.607 C 50.055 29.96 49.975 30.27 49.814 30.54 C 49.653 30.811 49.432 31.022 49.151 31.173 C 48.869 31.325 48.558 31.399 48.211 31.399 C 47.864 31.399 47.548 31.325 47.266 31.176 Z M 48.819 30.682 C 49.003 30.583 49.148 30.439 49.256 30.253 C 49.364 30.066 49.417 29.851 49.417 29.605 C 49.417 29.359 49.364 29.148 49.259 28.962 C 49.153 28.776 49.008 28.634 48.824 28.53 C 48.641 28.428 48.437 28.379 48.211 28.379 C 47.985 28.379 47.779 28.428 47.596 28.53 C 47.412 28.632 47.266 28.776 47.158 28.962 C 47.053 29.148 47 29.362 47 29.605 C 47 29.848 47.053 30.066 47.161 30.253 C 47.269 30.439 47.415 30.58 47.601 30.682 C 47.784 30.781 47.988 30.831 48.211 30.831 C 48.435 30.831 48.636 30.781 48.819 30.682 Z M 54.676 27.882 L 54.043 27.882 L 54.043 31.322 L 56.351 31.322 L 56.351 30.806 L 54.676 30.806 Z M 60.414 31.017 C 60.163 30.761 60.037 30.419 60.037 29.985 L 60.037 27.882 L 60.67 27.882 L 60.67 29.994 C 60.67 30.267 60.748 30.473 60.901 30.617 C 61.057 30.761 61.263 30.831 61.527 30.831 C 61.791 30.831 61.992 30.759 62.148 30.617 C 62.301 30.473 62.379 30.267 62.379 29.994 L 62.379 27.882 L 63.012 27.882 L 63.012 29.985 C 63.012 30.419 62.886 30.761 62.638 31.017 C 62.389 31.273 62.017 31.399 61.527 31.399 C 61.037 31.399 60.663 31.273 60.414 31.017 Z M 69.09 31.58 L 69.17 31.384 L 69.177 31.384 C 69.549 31.342 69.856 31.228 70.095 31.044 L 70.095 30.449 C 69.931 30.583 69.755 30.682 69.562 30.741 C 69.368 30.804 69.157 30.833 68.904 30.833 C 68.65 30.833 68.429 30.786 68.235 30.684 C 68.042 30.583 67.891 30.441 67.783 30.258 C 67.675 30.074 67.622 29.858 67.622 29.607 C 67.622 29.357 67.675 29.141 67.781 28.957 C 67.889 28.773 68.037 28.629 68.23 28.53 C 68.424 28.431 68.647 28.381 68.904 28.381 C 69.381 28.381 69.765 28.503 70.054 28.746 L 70.054 28.151 C 69.733 27.925 69.331 27.811 68.848 27.811 C 68.482 27.811 68.157 27.882 67.876 28.031 C 67.592 28.18 67.374 28.389 67.218 28.659 C 67.062 28.93 66.984 29.247 66.984 29.607 C 66.984 29.942 67.049 30.238 67.185 30.496 C 67.318 30.754 67.509 30.96 67.755 31.114 C 68.002 31.268 68.286 31.359 68.607 31.389 L 68.466 31.744 C 68.64 31.744 68.765 31.769 68.843 31.816 C 68.921 31.863 68.961 31.925 68.961 32.005 C 68.961 32.139 68.863 32.206 68.667 32.206 C 68.617 32.206 68.564 32.201 68.512 32.188 C 68.456 32.176 68.414 32.164 68.376 32.146 L 68.371 32.486 C 68.416 32.504 68.482 32.516 68.564 32.528 C 68.647 32.541 68.733 32.546 68.823 32.546 C 69.042 32.546 69.215 32.504 69.346 32.419 C 69.474 32.335 69.539 32.216 69.539 32.062 C 69.539 31.93 69.499 31.821 69.421 31.734 C 69.343 31.647 69.233 31.598 69.09 31.58 Z M 83.888 27.882 L 81.531 27.882 L 81.531 31.322 L 83.888 31.322 L 83.888 30.806 L 82.164 30.806 L 82.164 29.86 L 83.446 29.86 L 83.446 29.344 L 82.164 29.344 L 82.164 28.399 L 83.888 28.399 Z M 88.222 31.342 C 88.021 31.305 87.855 31.255 87.727 31.191 L 87.727 30.655 C 87.893 30.734 88.068 30.794 88.249 30.831 C 88.43 30.868 88.611 30.89 88.787 30.89 C 89.011 30.89 89.179 30.848 89.295 30.766 C 89.41 30.684 89.468 30.57 89.468 30.426 C 89.468 30.325 89.44 30.24 89.388 30.173 C 89.335 30.106 89.257 30.047 89.154 29.997 C 89.051 29.947 88.893 29.88 88.682 29.798 C 88.355 29.667 88.119 29.52 87.973 29.359 C 87.827 29.198 87.754 28.999 87.754 28.759 C 87.754 28.572 87.805 28.406 87.908 28.262 C 88.011 28.118 88.154 28.007 88.342 27.927 C 88.528 27.848 88.742 27.808 88.986 27.808 C 89.184 27.808 89.362 27.823 89.516 27.855 C 89.671 27.887 89.822 27.935 89.973 28.002 L 89.973 28.523 C 89.684 28.384 89.393 28.317 89.096 28.317 C 88.883 28.317 88.719 28.356 88.604 28.433 C 88.488 28.51 88.43 28.62 88.43 28.761 C 88.43 28.863 88.458 28.945 88.511 29.009 C 88.563 29.074 88.634 29.128 88.722 29.173 C 88.81 29.218 88.968 29.287 89.197 29.381 C 89.43 29.476 89.614 29.57 89.747 29.662 C 89.88 29.754 89.983 29.86 90.051 29.985 C 90.119 30.109 90.154 30.258 90.154 30.436 C 90.154 30.741 90.043 30.98 89.82 31.148 C 89.596 31.317 89.267 31.402 88.832 31.402 C 88.626 31.402 88.423 31.382 88.222 31.345 Z" fill="rgb(255, 255, 255)"/><path d="M 27.941 16.928 C 27.941 22.817 23.107 27.592 17.145 27.592 C 11.183 27.592 6.349 22.817 6.349 16.928 C 6.349 11.039 11.07 6.381 16.934 6.269 L 16.934 0 C 7.562 0.112 0 7.646 0 16.928 C 0 26.21 7.675 33.864 17.145 33.864 C 26.614 33.864 34.29 26.282 34.29 16.928 C 34.29 16.928 34.29 16.923 34.29 16.921 L 27.941 16.921 Z" fill="rgb(255, 255, 255)"/><path d="M 34.252 3.152 C 34.252 3.152 34.252 3.147 34.252 3.144 C 34.245 2.276 33.883 1.492 33.3 0.926 C 32.725 0.355 31.928 0 31.049 0 C 31.049 0 31.044 0 31.041 0 L 18.944 0.022 L 18.944 6.321 L 27.893 6.301 L 27.908 14.92 L 34.285 14.92 Z" fill="rgb(255, 255, 255)"/></svg>
