<?xml version="1.0" encoding="UTF-8"?> <svg xmlns="http://www.w3.org/2000/svg" width="65" height="26" fill="none"><g fill="#fff" clip-path="url(#a)"><path d="M55.9874 4.30453h-3.5843c-.4265 0-.7722.34427-.7722.76895v3.56919c0 .42467.3457.76894.7722.76894h3.5843c.4264 0 .7722-.34427.7722-.76894V5.07348c0-.42468-.3458-.76895-.7722-.76895ZM60.7528 1.86044h-2.4814c-.295 0-.5341.23811-.5341.53183v2.47098c0 .29372.2391.53183.5341.53183h2.4814c.295 0 .5341-.23811.5341-.53183V2.39227c0-.29372-.2391-.53183-.5341-.53183Z"></path><path d="m55.7335 23.6192-1.3737-2.3788c-.297-.5145-.9101-.7401-1.4818-.575-.5832.169-1.1019.1392-1.5068-.0941-.4232-.2438-.6864-.6864-.6864-1.1548V1.40539c0-.749737-.6102-1.3583624-1.3641-1.3583624h-2.521c-.7529 0-1.3641.6076654-1.3641 1.3583624v2.90777h-2.6367c-.7432 0-1.3458.59999-1.3458 1.34013v2.42682c0 .74014.6026 1.34013 1.3458 1.34013h2.6367v9.99626c0 2.3279 1.2667 4.5042 3.3067 5.6782 1.0498.6048 2.2134.9053 3.4194.9053.9679 0 1.9638-.1939 2.95-.5798.7153-.2803 1.0045-1.1376.6208-1.801h.001ZM31.6557 26c-5.9964 0-10.8754-4.8575-10.8754-10.8295 0-5.97202 4.878-10.8295 10.8754-10.8295 3.2305 0 6.2855 1.44957 8.3332 3.87351.6266.74206.4203 1.86999-.4204 2.35959l-1.6022.9322c-.644.3753-1.4596.2448-1.9657-.3015-1.1058-1.1971-2.6829-1.90552-4.3459-1.90552-3.2508 0-5.8951 2.63322-5.8951 5.87122s2.6443 5.8712 5.8951 5.8712c1.6601 0 3.2353-.7065 4.3411-1.9007.5061-.5463 1.3217-.6759 1.9657-.3005l1.6012.934c.8397.4896 1.046 1.6186.4184 2.3597-2.0476 2.4191-5.0997 3.8648-8.3264 3.8648l.001.001ZM17.1243 6.82927c1.744 1.54268 2.6492 3.78233 2.6492 6.89263v4.6808c0 4.7279-4.4018 6.8764-6.3434 7.3064-1.5338.3399-6.85532.6144-9.26061-.5856C3.003 24.5418 0 22.7102 0 19.4021c0-1.944.590959-3.358 2.06113-4.4726 1.47016-1.1145 3.74145-1.6722 6.81386-1.6722h5.80161c0-1.3219-.5466-2.3184-1.1896-2.878-.9843-.8573-2.5827-1.0445-3.65568-1.0445-1.55211 0-3.48791.8179-4.82793 1.6329-.85414.5194-1.55211.145-2.14018-.7324l-.97175-1.70016c-.4801-.93117-.07038-1.61468.82136-2.16858 1.59453-.9907 4.55029-2.07835 7.02885-2.07835 3.25363 0 5.63873 1.00029 7.38263 2.54202v-.00096ZM12.8816 20.5521c.8242-.3744 1.4296-1.2566 1.6128-1.7615.1832-.505.1398-1.6713.1398-1.6713H9.26543c-2.55375 0-3.83015.6383-3.83015 1.9141 0 .6077.36248 1.0695.98718 1.4237.6247.3542 2.35516.5606 3.4455.5606 1.09034 0 2.18834-.0902 3.01264-.4656h.001ZM64.2854 0h-1.5945c-.1896 0-.3432.153007-.3432.341752V1.92955c0 .18875.1536.34175.3432.34175h1.5945c.1895 0 .3432-.153.3432-.34175V.341752C64.6286.153007 64.4749 0 64.2854 0Z"></path></g><defs><clipPath id="a"><path fill="#fff" d="M0 0h64.6286v26H0z"></path></clipPath></defs></svg> 